<?xml version="1.0" standalone="no"?>
<!DOCTYPE svg PUBLIC "-//W3C//DTD SVG 20010904//EN"
 "http://www.w3.org/TR/2001/REC-SVG-20010904/DTD/svg10.dtd">
<svg version="1.0" xmlns="http://www.w3.org/2000/svg"
 width="1024.000000pt" height="1024.000000pt" viewBox="0 0 1024.000000 1024.000000"
 preserveAspectRatio="xMidYMid meet">

<g transform="translate(0.000000,1024.000000) scale(0.100000,-0.100000)"
fill="#000000" stroke="none">
<path d="M4841 8095 c-167 -15 -333 -39 -443 -66 -21 -5 -55 -13 -75 -17 -93
-21 -368 -113 -473 -159 -105 -46 -305 -149 -375 -193 -44 -27 -102 -63 -130
-80 -66 -39 -227 -162 -232 -176 -2 -6 31 -58 73 -115 42 -57 91 -123 108
-146 35 -47 44 -51 72 -25 10 9 48 37 84 61 36 24 67 47 70 51 10 14 261 161
361 211 115 57 120 60 199 89 30 11 64 25 75 30 23 10 190 62 255 79 25 7 59
16 75 21 33 10 114 23 285 45 154 20 539 20 686 0 138 -19 231 -40 439 -100
84 -25 119 -37 205 -72 19 -8 44 -18 55 -23 124 -50 434 -220 443 -242 2 -5 8
-8 12 -8 15 0 107 -64 173 -121 l29 -25 -53 -51 c-30 -28 -69 -64 -86 -81 -18
-17 -33 -33 -33 -36 0 -3 145 -6 321 -6 l321 0 -7 148 c-3 81 -8 161 -10 177
-2 17 -7 80 -11 140 -4 61 -9 101 -11 90 -10 -57 -26 -93 -40 -88 -7 3 -13 2
-11 -3 1 -5 -3 -19 -10 -31 l-12 -22 -23 22 c-13 12 -22 31 -21 42 3 19 2 19
-16 -2 -23 -29 -25 -29 -70 7 -44 35 -55 38 -40 10 12 -23 7 -25 -21 -10 -13
8 -19 7 -19 0 0 -7 -5 -10 -12 -8 -11 4 -18 31 -20 74 0 13 -21 34 -63 62 -60
41 -93 54 -79 30 4 -7 3 -8 -4 -4 -6 4 -9 12 -7 19 4 10 -53 57 -69 57 -3 0
-22 11 -42 25 -31 21 -293 153 -349 176 -11 4 -45 18 -75 29 -30 12 -64 26
-75 31 -74 32 -336 106 -455 129 -198 38 -509 70 -650 68 -41 0 -140 -6 -219
-13z m1899 -485 c0 -5 -5 -10 -11 -10 -5 0 -7 5 -4 10 3 6 8 10 11 10 2 0 4
-4 4 -10z m507 -330 c0 -34 -5 -50 -14 -50 -7 0 -13 5 -13 10 0 6 -7 10 -15
10 -8 0 -15 -4 -15 -10 0 -5 -5 -10 -10 -10 -6 0 -3 11 6 26 9 14 23 23 29 20
8 -3 15 7 19 25 9 44 15 35 13 -21z m9 -88 c1 -18 -2 -20 -19 -11 -13 7 -17 8
-13 1 3 -6 2 -13 -4 -17 -14 -9 -13 11 2 35 16 25 33 21 34 -8z"/>
<path d="M7227 7530 c-19 -22 -22 -35 -7 -25 10 6 34 45 28 45 -2 0 -11 -9
-21 -20z"/>
<path d="M6945 7480 c3 -5 8 -10 11 -10 2 0 4 5 4 10 0 6 -5 10 -11 10 -5 0
-7 -4 -4 -10z"/>
<path d="M5055 7442 c-49 -6 -114 -59 -115 -94 0 -25 -9 -28 -137 -44 -340
-44 -624 -140 -908 -307 -135 -79 -160 -97 -263 -181 l-72 -60 -81 0 -81 -1
-40 -45 -40 -45 5 -75 4 -75 -62 -80 c-111 -142 -207 -307 -293 -504 -85 -192
-152 -462 -168 -674 l-7 -86 -46 -23 c-119 -61 -119 -224 0 -281 l46 -22 12
-90 c15 -113 47 -283 68 -355 46 -166 153 -422 216 -520 93 -144 170 -252 224
-316 60 -70 63 -76 55 -107 -18 -65 7 -145 56 -182 32 -23 144 -34 166 -15 12
9 27 2 79 -37 274 -211 596 -359 937 -432 83 -17 241 -41 277 -41 28 0 35 -5
48 -37 9 -21 23 -45 32 -55 42 -46 123 -61 187 -34 35 15 82 68 88 101 3 16
17 21 102 32 297 37 539 108 781 230 144 72 207 110 340 207 61 43 115 79 120
78 6 0 29 -6 53 -12 123 -30 219 68 191 197 l-12 51 44 53 c24 30 49 59 56 66
26 28 123 173 170 253 100 172 171 343 227 552 28 101 66 313 66 366 0 22 6
34 18 38 55 18 71 29 95 66 31 49 35 99 10 149 -17 35 -60 79 -78 79 -29 1
-37 23 -51 151 -8 74 -25 182 -39 241 -26 119 -83 308 -96 323 -5 5 -9 15 -9
23 0 46 -227 458 -290 527 -20 21 -20 33 -2 78 14 34 15 87 3 120 -23 61 -128
103 -191 77 -29 -12 -32 -10 -87 40 -242 222 -572 407 -903 508 -36 11 -90 27
-120 36 -53 16 -272 52 -355 58 -35 3 -42 7 -57 40 -31 66 -94 99 -173 90z
m-100 -232 c31 -49 70 -70 132 -70 40 0 55 6 86 31 21 18 43 42 48 55 10 28
17 29 152 9 156 -23 331 -61 392 -85 11 -4 61 -22 110 -40 253 -91 481 -225
702 -413 l82 -70 -5 -71 c-5 -60 -2 -76 15 -103 31 -49 67 -68 133 -70 33 -1
66 -7 74 -14 37 -31 174 -256 233 -384 34 -73 114 -290 135 -365 33 -119 76
-371 76 -445 0 -35 -5 -42 -32 -56 -17 -8 -40 -27 -51 -40 -21 -29 -33 -95
-23 -133 8 -31 63 -96 81 -96 23 0 24 -12 10 -120 -50 -379 -221 -770 -482
-1098 l-57 -72 -61 6 c-118 12 -185 -50 -185 -169 l0 -66 -58 -44 c-86 -67
-255 -174 -341 -217 -259 -130 -442 -189 -726 -231 l-145 -22 -40 46 c-31 35
-51 48 -86 55 -71 15 -136 -8 -170 -60 l-19 -30 -85 6 c-110 7 -268 38 -399
77 -168 50 -171 53 -66 59 l90 5 -1 185 -2 185 -116 3 -116 3 0 -181 c0 -99
-3 -180 -6 -180 -26 0 -292 142 -389 208 -169 115 -180 125 -166 150 26 48 -1
141 -52 183 -34 28 -97 40 -141 28 -21 -6 -44 -8 -51 -5 -18 6 -134 155 -206
262 -66 97 -168 300 -220 434 -61 159 -110 368 -125 536 l-6 69 31 17 c65 36
90 129 55 203 -8 18 -34 46 -56 61 l-40 28 7 66 c17 173 53 344 102 490 86
257 184 445 336 647 l69 92 57 -6 c76 -7 124 9 159 55 22 29 27 46 27 91 0 31
-4 67 -8 81 -6 22 1 31 71 86 140 111 241 173 422 260 241 116 392 160 740
217 69 11 79 8 105 -33z m1874 -601 c33 -11 61 -52 61 -88 0 -11 -11 -32 -23
-47 -53 -61 -157 -15 -157 69 0 27 8 38 40 60 29 20 37 21 79 6z"/>
<path d="M4095 5805 c-5 -1 -37 -8 -70 -15 -69 -14 -102 -25 -162 -51 -24 -11
-47 -19 -52 -19 -24 0 -174 -111 -234 -173 -66 -68 -157 -205 -157 -237 0 -9
-4 -20 -9 -25 -5 -6 -19 -50 -31 -100 -20 -80 -22 -107 -17 -250 4 -142 8
-170 33 -246 68 -202 206 -356 399 -444 33 -15 67 -31 76 -35 9 -5 65 -20 125
-35 103 -25 119 -27 284 -22 147 4 189 9 260 30 135 39 245 90 332 154 l58 43
0 350 0 350 -365 0 -365 0 0 -160 0 -160 175 0 175 0 0 -99 0 -99 -45 -21
c-142 -67 -342 -69 -482 -5 -41 19 -120 78 -156 118 -74 82 -112 210 -104 357
3 53 9 105 14 115 5 10 24 49 42 86 75 155 242 247 444 248 69 0 154 -15 172
-31 5 -5 16 -9 25 -9 16 0 102 -53 162 -100 l26 -20 111 129 c61 72 111 136
111 144 0 27 -135 128 -212 156 -18 7 -42 17 -53 21 -58 23 -88 31 -169 45
-75 13 -310 20 -341 10z"/>
<path d="M5132 5603 l3 -168 280 -5 280 -5 2 -615 c1 -338 2 -621 2 -627 1
-10 47 -13 196 -13 l195 0 0 630 0 630 270 0 270 0 0 170 0 170 -750 0 -750 0
2 -167z"/>
<path d="M6880 5263 c0 -5 -2 -252 -4 -550 l-5 -543 115 0 114 0 0 550 0 550
-110 0 c-60 0 -110 -3 -110 -7z"/>
<path d="M6422 4443 l3 -268 118 -3 117 -3 0 271 0 270 -120 0 -120 0 2 -267z"/>
<path d="M5020 3425 l0 -455 115 0 115 0 0 455 0 455 -115 0 -115 0 0 -455z"/>
<path d="M4627 3473 c-4 -3 -7 -134 -7 -290 l0 -283 114 0 c109 0 114 1 120
23 8 29 8 251 -1 420 l-6 137 -107 0 c-59 0 -110 -3 -113 -7z"/>
<path d="M2759 7073 c-63 -68 -224 -286 -284 -383 -84 -137 -109 -182 -169
-305 -84 -173 -102 -216 -147 -347 -115 -341 -155 -565 -166 -929 -8 -273 9
-458 67 -744 17 -85 89 -328 115 -390 7 -16 29 -70 49 -120 59 -144 170 -358
250 -485 51 -80 128 -180 138 -180 22 0 317 213 311 224 -4 6 -32 49 -63 96
-76 114 -186 301 -215 364 -37 83 -66 149 -94 219 -14 36 -45 129 -61 182 -33
116 -48 185 -90 410 -21 112 -24 485 -6 635 39 312 112 574 232 829 30 62 54
115 54 118 0 6 151 254 172 283 10 14 49 65 85 115 36 49 75 98 86 110 10 11
31 35 45 53 25 33 25 33 6 51 -89 83 -263 231 -271 231 -5 0 -25 -17 -44 -37z"/>
<path d="M7604 6804 c3 -8 2 -12 -4 -9 -12 8 -87 -31 -117 -61 -13 -13 -27
-25 -31 -26 -4 -2 -6 -7 -4 -11 1 -5 -2 -6 -8 -2 -11 7 -140 -71 -140 -85 0
-4 7 -13 15 -20 8 -7 15 -19 15 -26 0 -8 5 -14 10 -14 6 0 10 -4 10 -10 0 -8
56 -96 70 -110 3 -3 12 -18 20 -35 8 -16 18 -32 21 -35 7 -6 149 -295 149
-304 0 -3 9 -25 20 -49 54 -117 118 -353 144 -527 31 -205 36 -271 36 -430 -1
-671 -223 -1262 -679 -1800 -44 -52 -81 -98 -81 -101 0 -20 263 -249 286 -249
6 0 35 28 65 63 29 34 60 69 68 77 22 23 141 185 199 271 174 260 322 585 408
895 37 137 43 162 67 289 58 313 57 797 -3 1075 -6 25 -19 86 -29 135 -40 187
-100 371 -181 550 -33 75 -127 262 -160 320 -22 39 -43 77 -47 85 -4 8 -9 17
-12 20 -14 12 -51 70 -51 80 0 5 -4 10 -10 10 -5 0 -10 5 -10 11 0 12 -25 39
-35 39 -4 0 -4 -7 -1 -16z m91 -132 c-8 -8 -35 20 -35 37 1 12 5 11 21 -8 11
-13 17 -26 14 -29z m-260 8 c3 -5 -1 -10 -10 -10 -9 0 -13 5 -10 10 3 6 8 10
10 10 2 0 7 -4 10 -10z"/>
<path d="M3002 3093 l-83 -4 6 -32 c5 -31 10 -90 36 -422 6 -82 13 -156 15
-164 3 -9 34 17 87 72 l83 87 112 -82 c61 -46 133 -94 159 -108 27 -13 50 -27
53 -31 7 -9 285 -151 350 -178 30 -13 74 -32 97 -42 23 -11 47 -19 53 -19 5 0
18 -4 28 -9 33 -18 250 -87 342 -109 25 -6 65 -15 90 -21 72 -18 265 -48 388
-61 145 -16 582 -7 702 13 192 34 267 50 378 82 168 47 276 83 367 122 44 19
98 42 120 51 102 43 450 233 498 272 7 6 45 33 84 62 40 29 73 59 73 66 0 15
-107 169 -217 312 -2 2 -10 0 -18 -5 -291 -204 -397 -266 -657 -384 -180 -81
-472 -161 -703 -191 -237 -31 -553 -27 -770 10 -172 29 -392 86 -500 129 -37
15 -70 29 -107 45 -20 9 -39 16 -43 16 -34 0 -393 205 -558 318 l-39 27 91 86
c50 47 88 89 84 93 -6 6 -439 5 -601 -1z"/>
</g>
</svg>
